<svg width="68" height="88" viewBox="0 0 68 88" fill="none" xmlns="http://www.w3.org/2000/svg">
<path d="M34 0C48.0675 0 59.5 11.1467 59.5 24.9333C59.5 43.6229 34 71.2381 34 71.2381C34 71.2381 8.5 43.6229 8.5 24.9333C8.5 11.1467 19.9325 0 34 0ZM34 16.7619C31.7457 16.7619 50.8941 17.6449 49.3 19.2166C47.7059 20.7884 25.5 22.9201 25.5 25.1429C25.5 27.3656 26.3955 29.4974 27.9896 31.0691C29.5837 32.6408 31.7457 33.5238 34 33.5238C36.2543 33.5238 17.1059 32.6408 18.7 31.0691C20.2941 29.4974 22.1 27.3656 22.1 25.1429C22.1 22.9201 41.6045 20.7884 40.0104 19.2166C38.4164 17.6449 36.2543 16.7619 34 16.7619ZM68 71.2381C68 80.4991 52.785 88 34 88C15.215 88 0 80.4991 0 71.2381C0 65.8324 5.185 61.0133 13.2175 57.9543L15.9375 61.7676C11.3475 63.6533 8.5 66.2514 8.5 69.1429C8.5 74.9257 19.9325 79.6191 34 79.6191C48.0675 79.6191 59.5 74.9257 59.5 69.1429C59.5 66.2514 56.6525 63.6533 52.0625 61.7676L54.7825 57.9543C62.815 61.0133 68 65.8324 68 71.2381Z" fill="#0B148B"/>
<path d="M37.1605 14.9091L36.6065 35.2784H31.4077L30.8395 14.9091H37.1605ZM34.0071 44.3693C33.0696 44.3693 32.2647 44.0379 31.5923 43.375C30.92 42.7027 30.5885 41.8977 30.598 40.9602C30.5885 40.0322 30.92 39.2367 31.5923 38.5739C32.2647 37.911 33.0696 37.5795 34.0071 37.5795C34.9067 37.5795 35.6974 37.911 36.3793 38.5739C37.0611 39.2367 37.4067 40.0322 37.4162 40.9602C37.4067 41.5852 37.241 42.1581 36.919 42.679C36.6065 43.1903 36.1946 43.6023 35.6832 43.9148C35.1719 44.2178 34.6132 44.3693 34.0071 44.3693Z" fill="white"/>
</svg>
