<svg width="148" height="148" viewBox="0 0 148 148" fill="none" xmlns="http://www.w3.org/2000/svg">
<g filter="url(#filter0_d_914_9717)">
<mask id="mask0_914_9717" style="mask-type:alpha" maskUnits="userSpaceOnUse" x="4" y="0" width="140" height="140">
<rect x="4" width="140" height="140" rx="20" fill="white"/>
</mask>
<g mask="url(#mask0_914_9717)">
<rect x="4" width="140" height="140" fill="#F5F5F5"/>
<g filter="url(#filter1_if_914_9717)">
<path d="M74.5 107C25.6551 107 -14 146.655 -14 195.5C-14 244.345 25.6551 284 74.5 284C123.256 284 162.842 244.487 162.986 195.762C162.995 195.675 163 195.587 163 195.5C163 195.421 162.996 195.343 162.989 195.265C162.862 146.528 123.267 107 74.5 107ZM74.5 112.31C79.4135 112.31 84.2173 112.76 88.8954 113.576C90.0247 116.046 96.1577 116.577 89.6565 116.144C87.1502 119.719 77.2329 112.386 70.629 116.227C68.6484 119.017 56.115 122.018 60.8232 126.543C67.5262 125.327 60.0851 126.424 60.2851 129.752C56.8584 130.937 51.9909 136.601 52.0599 130.805C51.2103 126.56 55.8867 122.65 48.3164 125.831C47.9004 128.143 36.5034 132.592 42.2046 133.615C48.1996 130.606 39.8098 138.391 46.7889 135.32C42.0258 137.479 45.6384 139.835 43.4524 144.595C35.7476 140.993 32.197 147.82 30.5845 154.365C32.4112 154.537 33.0307 155.491 32.8537 156.631C33.7776 156.721 35.0839 156.849 35.6733 156.902C39.5372 156.606 43.0949 154.073 44.9392 150.383C49.3341 147.032 52.9308 145.108 58.2549 145.359C55.7008 144.926 52.2936 156.125 57.4708 151.885C55.2442 142.389 67.3474 152.802 64.696 152.861C60.248 153.519 58.8196 154.659 62.6498 157.87C65.3172 159.9 66.9563 150.096 70.2166 151.804C69.783 149.937 62.1578 143.928 63.2853 144.243C63.5455 144.315 64.2712 144.728 65.6606 145.602C71.937 147.577 70.9087 155.673 76.6081 158.519C80.5729 163.675 86.7077 155.53 91.0424 158.001C91.1911 161.403 95.0285 161.058 94.8798 157.413C99.2074 160.727 94.4196 168.895 88.4104 165.628C82.704 168.916 74.546 157.817 71.091 166.237C69.5511 170.208 64.2783 163.162 62.0958 163.012C54.476 163.856 61.7914 155.563 56.5133 154.675C49.7112 154.617 42.7126 157.472 36.1618 157.047C32.5988 158.142 30.3633 159.604 28.234 160.92C26.1896 163.971 22.1717 166.148 18.0388 171.989C17.2812 173.157 15.9643 174.605 14.3961 176.361C12.2509 183.659 9.62242 190.963 10.0366 198.557C14.7147 203.492 15.8121 215.411 25.0019 214.466C31.073 217.602 35.6715 212.186 41.3638 214.005C42.4134 219.919 53.5149 217.457 50.5218 223.378C47.3978 230.45 56.5274 233.861 58.0195 240.299C61.9171 246.734 52.1396 253.443 59.9913 258.981C64.3384 266.185 69.3759 277.129 79.7799 272.872C87.8741 272.353 92.8248 265.527 97.8799 260.87C97.4215 252.328 112.852 253.259 109.399 242.398C107.364 241.116 109.527 235.982 108.408 234.164C109.565 231.783 113.644 225.002 117.589 221.684C123.637 216.993 126.173 209.655 128.17 202.555C126.934 196.585 124.117 202.428 120.527 202.175C110.976 205.716 120.752 198.068 124.347 195.891C129.42 192.902 134.354 187.802 135.471 182.368C140.172 177.288 124.12 172.354 134.206 174.014C140.583 172.77 143.854 172.012 145.486 178.119C151.734 180.59 151.237 191.912 154.755 198.079C156.578 195.831 155.849 197.578 156.624 200.281C158.66 194.445 154.371 185.041 155.704 177.455C157.02 183.38 157.686 189.431 157.69 195.5C157.69 241.476 120.476 278.69 74.5 278.69C28.5243 278.69 -8.69 241.476 -8.69 195.5C-8.69 159.757 13.8067 129.32 45.4189 117.537C48.4881 116.659 51.5608 115.79 54.5663 114.726C61.0894 113.121 67.7824 112.31 74.5 112.31ZM92.7186 114.333C93.6018 114.528 94.4886 114.719 95.3595 114.944C95.1577 116.28 94.0355 115.452 92.7186 114.333ZM48.2474 118.008C46.2154 118.045 43.8985 118.799 44.5003 120.682C45.6154 121.093 46.7747 120.788 47.8668 120.521C53.0033 119.091 50.8599 117.958 48.2474 118.008ZM73.2274 124.659C75.9319 124.261 73.3778 132.063 69.19 130.051C62.3259 130.76 70.2237 129.617 70.4732 126.466C71.7016 125.281 72.6043 124.75 73.2274 124.659ZM111.265 140.108C111.778 140.17 111.934 140.795 111.224 142.283C110.645 144.191 119.95 150.37 119.373 154.307C111.111 156.475 116.276 148.42 110.895 146.781C104.988 144.825 109.725 139.926 111.265 140.108ZM87.3006 141.653C90.3698 145.765 95.1594 142.54 99.6322 145.878C105.105 151.4 91.0053 145.152 88.5556 148.337C81.2437 150.586 84.8333 143.894 87.3006 141.653ZM15.7997 166.745C15.2793 166.667 14.8528 167.028 14.4758 168.497C15.7325 168.562 16.6706 168.704 17.3449 168.918L17.7556 167.647C16.9715 167.364 16.3343 166.824 15.7997 166.745ZM119.131 167.644C120.334 171.819 129.689 171.157 127.423 175.069L126.356 175.823C124.529 174.628 116.93 169.593 119.131 167.644ZM96.9401 173.003C101.255 175.947 104.348 181.977 107.107 186.703C110.898 189.401 111.019 193.735 113.479 197.144C112.474 198.419 110.509 196.095 110.107 195.268C106.82 192.969 104.107 187.126 101.783 182.459C100.323 179.223 96.7595 176.272 96.9401 173.003ZM122.757 241.863C122.364 241.837 121.766 242.297 120.922 243.455C114.828 247.945 109.99 253.289 109.629 260.995C113.851 262.914 117.428 255.181 119.697 252.482C122.297 251.223 124.456 241.978 122.757 241.863Z" fill="#70A9FF"/>
</g>
<g filter="url(#filter2_i_914_9717)">
<path fill-rule="evenodd" clip-rule="evenodd" d="M73.875 20C72.7642 19.9999 71.6663 20.2385 70.6558 20.6998C69.6452 21.161 68.7457 21.8342 68.0181 22.6735C67.2904 23.5129 66.7517 24.4988 66.4385 25.5646C66.1252 26.6303 66.0448 27.7509 66.2025 28.8505C60.5862 30.5087 55.6569 33.9392 52.1509 38.6297C48.6449 43.3202 46.7503 49.019 46.75 54.875V85.875H42.875C41.8473 85.875 40.8617 86.2833 40.135 87.01C39.4083 87.7367 39 88.7223 39 89.75C39 90.7777 39.4083 91.7633 40.135 92.49C40.8617 93.2167 41.8473 93.625 42.875 93.625H104.875C105.903 93.625 106.888 93.2167 107.615 92.49C108.342 91.7633 108.75 90.7777 108.75 89.75C108.75 88.7223 108.342 87.7367 107.615 87.01C106.888 86.2833 105.903 85.875 104.875 85.875H101V54.875C101 49.019 99.1051 43.3202 95.5991 38.6297C92.0931 33.9392 87.1638 30.5087 81.5475 28.8505C81.7052 27.7509 81.6248 26.6303 81.3115 25.5646C80.9983 24.4988 80.4596 23.5129 79.7319 22.6735C79.0043 21.8342 78.1048 21.161 77.0942 20.6998C76.0837 20.2385 74.9858 19.9999 73.875 20ZM81.625 101.375C81.625 102.403 81.2167 103.388 80.49 104.115C79.7633 104.842 78.7777 105.25 77.75 105.25H70C68.9723 105.25 67.9867 104.842 67.26 104.115C66.5333 103.388 66.125 102.403 66.125 101.375C66.125 100.347 66.5333 99.3617 67.26 98.635C67.9867 97.9083 68.9723 97.5 70 97.5H77.75C78.7777 97.5 79.7633 97.9083 80.49 98.635C81.2167 99.3617 81.625 100.347 81.625 101.375Z" fill="#0B148B"/>
</g>
</g>
</g>
<defs>
<filter id="filter0_d_914_9717" x="0" y="0" width="148" height="148" filterUnits="userSpaceOnUse" color-interpolation-filters="sRGB">
<feFlood flood-opacity="0" result="BackgroundImageFix"/>
<feColorMatrix in="SourceAlpha" type="matrix" values="0 0 0 0 0 0 0 0 0 0 0 0 0 0 0 0 0 0 127 0" result="hardAlpha"/>
<feOffset dy="4"/>
<feGaussianBlur stdDeviation="2"/>
<feComposite in2="hardAlpha" operator="out"/>
<feColorMatrix type="matrix" values="0 0 0 0 0 0 0 0 0 0 0 0 0 0 0 0 0 0 0.25 0"/>
<feBlend mode="normal" in2="BackgroundImageFix" result="effect1_dropShadow_914_9717"/>
<feBlend mode="normal" in="SourceGraphic" in2="effect1_dropShadow_914_9717" result="shape"/>
</filter>
<filter id="filter1_if_914_9717" x="-18" y="103" width="185" height="185" filterUnits="userSpaceOnUse" color-interpolation-filters="sRGB">
<feFlood flood-opacity="0" result="BackgroundImageFix"/>
<feBlend mode="normal" in="SourceGraphic" in2="BackgroundImageFix" result="shape"/>
<feColorMatrix in="SourceAlpha" type="matrix" values="0 0 0 0 0 0 0 0 0 0 0 0 0 0 0 0 0 0 127 0" result="hardAlpha"/>
<feOffset dy="4"/>
<feGaussianBlur stdDeviation="2"/>
<feComposite in2="hardAlpha" operator="arithmetic" k2="-1" k3="1"/>
<feColorMatrix type="matrix" values="0 0 0 0 0.5125 0 0 0 0 0.883 0 0 0 0 1 0 0 0 0.61 0"/>
<feBlend mode="normal" in2="shape" result="effect1_innerShadow_914_9717"/>
<feGaussianBlur stdDeviation="2" result="effect2_foregroundBlur_914_9717"/>
</filter>
<filter id="filter2_i_914_9717" x="39" y="20" width="69.75" height="105.25" filterUnits="userSpaceOnUse" color-interpolation-filters="sRGB">
<feFlood flood-opacity="0" result="BackgroundImageFix"/>
<feBlend mode="normal" in="SourceGraphic" in2="BackgroundImageFix" result="shape"/>
<feColorMatrix in="SourceAlpha" type="matrix" values="0 0 0 0 0 0 0 0 0 0 0 0 0 0 0 0 0 0 127 0" result="hardAlpha"/>
<feOffset dy="20"/>
<feGaussianBlur stdDeviation="15"/>
<feComposite in2="hardAlpha" operator="arithmetic" k2="-1" k3="1"/>
<feColorMatrix type="matrix" values="0 0 0 0 0.275 0 0 0 0 0.478 0 0 0 0 1 0 0 0 1 0"/>
<feBlend mode="normal" in2="shape" result="effect1_innerShadow_914_9717"/>
</filter>
</defs>
</svg>
