<svg width="96" height="106" viewBox="0 0 96 106" fill="none" xmlns="http://www.w3.org/2000/svg">
<g filter="url(#filter0_d_753_9672)">
<path d="M46.551 49.5541C46.3556 49.75 46.0383 49.75 45.8429 49.5541L38.3218 42.0122C38.0075 41.697 38.2307 41.1591 38.6758 41.1591L53.7181 41.1591C54.1632 41.1591 54.3864 41.697 54.0721 42.0122L46.551 49.5541Z" fill="#4C81CD"/>
<path d="M45.7176 15.5689C45.8592 15.092 46.5347 15.092 46.6763 15.5689L54.2728 41.1532C54.368 41.4737 54.1279 41.7956 53.7935 41.7956H38.6004C38.266 41.7956 38.0259 41.4737 38.1211 41.1532L45.7176 15.5689Z" fill="#4C81CD"/>
</g>
<g filter="url(#filter1_d_753_9672)">
<path d="M46.551 53.5521C46.3556 53.3562 46.0383 53.3562 45.8429 53.5521L38.3218 61.094C38.0075 61.4092 38.2307 61.9471 38.6758 61.9471L53.7181 61.9471C54.1632 61.9471 54.3864 61.4092 54.0721 61.094L46.551 53.5521Z" fill="#E9A292"/>
<path d="M45.7176 87.5372C45.8592 88.0141 46.5347 88.0141 46.6763 87.5372L54.2728 61.9529C54.368 61.6324 54.1279 61.3106 53.7935 61.3106H38.6004C38.266 61.3106 38.0259 61.6324 38.1211 61.9529L45.7176 87.5372Z" fill="#E9A292"/>
</g>
<g filter="url(#filter2_d_753_9672)">
<path d="M47.1884 51.854C46.9925 51.6587 46.9925 51.3413 47.1884 51.1459L54.7303 43.6248C55.0455 43.3105 55.5834 43.5338 55.5834 43.9789L55.5834 59.0211C55.5834 59.4662 55.0455 59.6895 54.7303 59.3751L47.1884 51.854Z" fill="#F0F0A6"/>
<path d="M81.1736 51.0207C81.6505 51.1623 81.6505 51.8377 81.1736 51.9793L55.5893 59.5759C55.2687 59.671 54.9469 59.4309 54.9469 59.0966L54.9469 43.9034C54.9469 43.5691 55.2687 43.3289 55.5893 43.4241L81.1736 51.0207Z" fill="#F0F0A6"/>
</g>
<g filter="url(#filter3_d_753_9672)">
<path d="M45.2055 51.854C45.4014 51.6587 45.4014 51.3413 45.2055 51.1459L37.6636 43.6248C37.3484 43.3105 36.8105 43.5338 36.8105 43.9789L36.8105 59.0211C36.8105 59.4662 37.3484 59.6895 37.6636 59.3751L45.2055 51.854Z" fill="#B4D49D"/>
<path d="M11.2204 51.0207C10.7435 51.1623 10.7435 51.8377 11.2204 51.9793L36.8047 59.5759C37.1252 59.671 37.447 59.4309 37.447 59.0966L37.447 43.9034C37.447 43.5691 37.1252 43.3289 36.8047 43.4241L11.2204 51.0207Z" fill="#B4D49D"/>
</g>
<path d="M49.5359 3V11H48.4265L44.3601 5.13281H44.2859V11H43.0789V3H44.196L48.2664 8.875H48.3406V3H49.5359Z" fill="black"/>
<path d="M48.2422 95.1016C48.2005 94.7318 48.0286 94.4453 47.7266 94.2422C47.4245 94.0365 47.0443 93.9336 46.5859 93.9336C46.2578 93.9336 45.974 93.9857 45.7344 94.0898C45.4948 94.1914 45.3086 94.332 45.1758 94.5117C45.0456 94.6888 44.9805 94.8906 44.9805 95.1172C44.9805 95.3073 45.0247 95.4714 45.1133 95.6094C45.2044 95.7474 45.3229 95.8633 45.4688 95.957C45.6172 96.0482 45.776 96.125 45.9453 96.1875C46.1146 96.2474 46.2773 96.2969 46.4336 96.3359L47.2148 96.5391C47.4701 96.6016 47.7318 96.6862 48 96.793C48.2682 96.8997 48.5169 97.0404 48.7461 97.2148C48.9753 97.3893 49.1602 97.6055 49.3008 97.8633C49.444 98.1211 49.5156 98.4297 49.5156 98.7891C49.5156 99.2422 49.3984 99.6445 49.1641 99.9961C48.9323 100.348 48.5951 100.625 48.1523 100.828C47.7122 101.031 47.1797 101.133 46.5547 101.133C45.9557 101.133 45.4375 101.038 45 100.848C44.5625 100.658 44.2201 100.388 43.9727 100.039C43.7253 99.6875 43.5885 99.2708 43.5625 98.7891H44.7734C44.7969 99.0781 44.8906 99.319 45.0547 99.5117C45.2214 99.7018 45.4336 99.8437 45.6914 99.9375C45.9518 100.029 46.237 100.074 46.5469 100.074C46.888 100.074 47.1914 100.021 47.457 99.9141C47.7253 99.8047 47.9362 99.6536 48.0898 99.4609C48.2435 99.2656 48.3203 99.0378 48.3203 98.7773C48.3203 98.5404 48.2526 98.3464 48.1172 98.1953C47.9844 98.0443 47.8034 97.9193 47.5742 97.8203C47.3477 97.7214 47.0911 97.6341 46.8047 97.5586L45.8594 97.3008C45.2188 97.1263 44.7109 96.8698 44.3359 96.5312C43.9635 96.1927 43.7773 95.7448 43.7773 95.1875C43.7773 94.7266 43.9023 94.3242 44.1523 93.9805C44.4023 93.6367 44.7409 93.3698 45.168 93.1797C45.5951 92.987 46.0768 92.8906 46.6133 92.8906C47.1549 92.8906 47.6328 92.9857 48.0469 93.1758C48.4635 93.3659 48.7917 93.6276 49.0313 93.9609C49.2708 94.2917 49.3958 94.6719 49.4063 95.1016H48.2422Z" fill="black"/>
<path d="M1.57812 47.5455L3.80469 54.0611H3.89453L6.12109 47.5455H7.42578L4.54688 55.5455H3.15234L0.273438 47.5455H1.57812Z" fill="black"/>
<path d="M86.7266 56.3477L86.0781 55.9023L91.6953 47.668L92.3477 48.1133L86.7266 56.3477ZM92.8281 52C92.8281 52.8542 92.6719 53.5885 92.3594 54.2031C92.0469 54.8151 91.6185 55.2865 91.0742 55.6172C90.5326 55.9453 89.9167 56.1094 89.2266 56.1094C88.5339 56.1094 87.9154 55.9453 87.3711 55.6172C86.8294 55.2865 86.4023 54.8138 86.0898 54.1992C85.7773 53.5846 85.6211 52.8516 85.6211 52C85.6211 51.1458 85.7773 50.4128 86.0898 49.8008C86.4023 49.1862 86.8294 48.7148 87.3711 48.3867C87.9154 48.056 88.5339 47.8906 89.2266 47.8906C89.9167 47.8906 90.5326 48.056 91.0742 48.3867C91.6185 48.7148 92.0469 49.1862 92.3594 49.8008C92.6719 50.4128 92.8281 51.1458 92.8281 52ZM91.6328 52C91.6328 51.349 91.5273 50.8008 91.3164 50.3555C91.1081 49.9076 90.8216 49.569 90.457 49.3398C90.0951 49.1081 89.6849 48.9922 89.2266 48.9922C88.7656 48.9922 88.3542 49.1081 87.9922 49.3398C87.6302 49.569 87.3438 49.9076 87.1328 50.3555C86.9245 50.8008 86.8203 51.349 86.8203 52C86.8203 52.651 86.9245 53.2005 87.1328 53.6484C87.3438 54.0937 87.6302 54.4323 87.9922 54.6641C88.3542 54.8932 88.7656 55.0078 89.2266 55.0078C89.6849 55.0078 90.0951 54.8932 90.457 54.6641C90.8216 54.4323 91.1081 54.0937 91.3164 53.6484C91.5273 53.2005 91.6328 52.651 91.6328 52Z" fill="black"/>
<defs>
<filter id="filter0_d_753_9672" x="34.1001" y="15.2112" width="24.1937" height="42.4898" filterUnits="userSpaceOnUse" color-interpolation-filters="sRGB">
<feFlood flood-opacity="0" result="BackgroundImageFix"/>
<feColorMatrix in="SourceAlpha" type="matrix" values="0 0 0 0 0 0 0 0 0 0 0 0 0 0 0 0 0 0 127 0" result="hardAlpha"/>
<feOffset dy="4"/>
<feGaussianBlur stdDeviation="2"/>
<feComposite in2="hardAlpha" operator="out"/>
<feColorMatrix type="matrix" values="0 0 0 0 0 0 0 0 0 0 0 0 0 0 0 0 0 0 0.25 0"/>
<feBlend mode="normal" in2="BackgroundImageFix" result="effect1_dropShadow_753_9672"/>
<feBlend mode="normal" in="SourceGraphic" in2="effect1_dropShadow_753_9672" result="shape"/>
</filter>
<filter id="filter1_d_753_9672" x="34.1001" y="53.4052" width="24.1937" height="42.4897" filterUnits="userSpaceOnUse" color-interpolation-filters="sRGB">
<feFlood flood-opacity="0" result="BackgroundImageFix"/>
<feColorMatrix in="SourceAlpha" type="matrix" values="0 0 0 0 0 0 0 0 0 0 0 0 0 0 0 0 0 0 127 0" result="hardAlpha"/>
<feOffset dy="4"/>
<feGaussianBlur stdDeviation="2"/>
<feComposite in2="hardAlpha" operator="out"/>
<feColorMatrix type="matrix" values="0 0 0 0 0 0 0 0 0 0 0 0 0 0 0 0 0 0 0.25 0"/>
<feBlend mode="normal" in2="BackgroundImageFix" result="effect1_dropShadow_753_9672"/>
<feBlend mode="normal" in="SourceGraphic" in2="effect1_dropShadow_753_9672" result="shape"/>
</filter>
<filter id="filter2_d_753_9672" x="43.0415" y="43.4031" width="42.4897" height="24.1938" filterUnits="userSpaceOnUse" color-interpolation-filters="sRGB">
<feFlood flood-opacity="0" result="BackgroundImageFix"/>
<feColorMatrix in="SourceAlpha" type="matrix" values="0 0 0 0 0 0 0 0 0 0 0 0 0 0 0 0 0 0 127 0" result="hardAlpha"/>
<feOffset dy="4"/>
<feGaussianBlur stdDeviation="2"/>
<feComposite in2="hardAlpha" operator="out"/>
<feColorMatrix type="matrix" values="0 0 0 0 0 0 0 0 0 0 0 0 0 0 0 0 0 0 0.25 0"/>
<feBlend mode="normal" in2="BackgroundImageFix" result="effect1_dropShadow_753_9672"/>
<feBlend mode="normal" in="SourceGraphic" in2="effect1_dropShadow_753_9672" result="shape"/>
</filter>
<filter id="filter3_d_753_9672" x="6.86267" y="43.4031" width="42.4897" height="24.1938" filterUnits="userSpaceOnUse" color-interpolation-filters="sRGB">
<feFlood flood-opacity="0" result="BackgroundImageFix"/>
<feColorMatrix in="SourceAlpha" type="matrix" values="0 0 0 0 0 0 0 0 0 0 0 0 0 0 0 0 0 0 127 0" result="hardAlpha"/>
<feOffset dy="4"/>
<feGaussianBlur stdDeviation="2"/>
<feComposite in2="hardAlpha" operator="out"/>
<feColorMatrix type="matrix" values="0 0 0 0 0 0 0 0 0 0 0 0 0 0 0 0 0 0 0.25 0"/>
<feBlend mode="normal" in2="BackgroundImageFix" result="effect1_dropShadow_753_9672"/>
<feBlend mode="normal" in="SourceGraphic" in2="effect1_dropShadow_753_9672" result="shape"/>
</filter>
</defs>
</svg>
